<svg 
 xmlns="http://www.w3.org/2000/svg"
 xmlns:xlink="http://www.w3.org/1999/xlink"
 width="16px" height="11px">
<defs>
<filter id="Filter_0">
    <feFlood flood-color="rgb(255, 255, 255)" flood-opacity="1" result="floodOut" />
    <feComposite operator="atop" in="floodOut" in2="SourceGraphic" result="compOut" />
    <feBlend mode="normal" in="compOut" in2="SourceGraphic" />
</filter>

</defs>
<g filter="url(#Filter_0)">
<path fill-rule="evenodd"  fill="rgb(159, 163, 167)"
 d="M14.136,0.036 L1.974,0.036 C1.239,0.036 0.640,0.601 0.640,1.295 L0.640,9.378 C0.640,10.072 1.239,10.637 1.974,10.637 L14.136,10.637 C14.871,10.637 15.470,10.072 15.470,9.378 L15.470,1.295 C15.470,0.601 14.871,0.036 14.136,0.036 ZM1.914,2.022 L7.713,6.703 C7.721,6.709 7.729,6.714 7.735,6.719 L7.761,6.736 C7.765,6.740 7.772,6.744 7.781,6.750 L7.787,6.755 L7.904,6.810 L7.914,6.810 C7.922,6.813 7.931,6.816 7.940,6.818 L7.945,6.819 C7.946,6.819 7.948,6.820 7.949,6.820 C7.961,6.824 7.977,6.828 7.996,6.831 C7.997,6.831 7.997,6.831 7.998,6.831 C8.007,6.833 8.015,6.835 8.022,6.835 L8.043,6.842 L8.079,6.842 L8.082,6.842 C8.093,6.843 8.109,6.845 8.128,6.845 C8.141,6.845 8.163,6.845 8.188,6.842 C8.210,6.841 8.231,6.838 8.248,6.833 L8.255,6.833 L8.282,6.825 C8.284,6.825 8.285,6.825 8.287,6.825 L8.298,6.824 L8.334,6.812 C8.336,6.812 8.338,6.811 8.341,6.810 L8.351,6.810 L8.469,6.755 L8.477,6.747 C8.483,6.744 8.488,6.741 8.494,6.737 L8.513,6.725 L8.516,6.722 C8.517,6.721 8.518,6.720 8.519,6.720 C8.526,6.715 8.534,6.709 8.542,6.703 L14.196,2.144 L14.196,9.378 C14.196,9.408 14.168,9.435 14.136,9.435 L1.974,9.435 C1.942,9.435 1.914,9.408 1.914,9.378 L1.914,2.022 ZM8.131,5.458 L2.903,1.238 L13.359,1.238 L8.131,5.458 Z"/>
</g>
</svg>