<?xml version="1.0" encoding="utf-8"?>
<!-- Generator: Adobe Illustrator 23.0.3, SVG Export Plug-In . SVG Version: 6.00 Build 0)  -->
<svg version="1.1" id="Capa_1" xmlns="http://www.w3.org/2000/svg" xmlns:xlink="http://www.w3.org/1999/xlink" x="0px" y="0px"
	 viewBox="0 0 93.9 93.4" style="enable-background:new 0 0 93.9 93.4;" xml:space="preserve">
<style type="text/css">
	.st0{fill:#FFFFFF;}
</style>
<title>wap</title>
<g>
	<path class="st0" d="M48.8,21C34.7,21,23.3,32.3,23.2,46.4c0,5.2,1.5,10.3,4.5,14.5L25.5,70l8.7-2.5c4.3,2.9,9.3,4.5,14.5,4.5
		c14,0,25.4-11.4,25.5-25.4C74.3,32.5,62.9,21.1,48.8,21z M63.1,57.7c-1.8,3.9-8.3,3-8.3,3C44.4,58.9,35.9,51.2,33.1,41
		c-1.8-5.8,4.2-8.7,4.2-8.7c1-0.6,2.3-0.4,3.1,0.5c0.7,0.9,1.2,1.9,1.5,3l0.6,1.7c0.4,0.9,0.7,1.8,0.7,2.8c-0.1,1-1,1.6-1.6,2.3
		c-0.3,0.5-0.6,0.9-1,1.3c2.4,6.8,11.6,10.2,11.6,10.2l2.1-2.2c0.5-0.7,1.1-1.2,1.9-1.6c1.1-0.3,2.2,0.4,3.1,0.9c1,0.5,2,1,2.9,1.6
		c0.8,0.3,1.4,1,1.5,1.9C63.7,55.7,63.5,56.8,63.1,57.7z"/>
	<path class="st0" d="M83,1.6H11c-5,0-9,4-9,9v72c0,5,4,9,9,9h72c5,0,9-4,9-9v-72C92,5.6,88,1.6,83,1.6z M80.8,48.1
		c-1,17-15.5,30-32.5,29c-5.2,0-10.4-1.3-14.9-3.9L18,77.6L21.9,62c-2.8-4.8-4.3-10.2-4.3-15.7c0-17,13.7-30.7,30.7-30.7
		c1.2-0.1,2.3-0.1,3.5,0C68.8,16.6,81.8,31.1,80.8,48.1z"/>
</g>
</svg>
