<?xml version="1.0" encoding="utf-8"?>
<!-- Generator: Adobe Illustrator 23.0.3, SVG Export Plug-In . SVG Version: 6.00 Build 0)  -->
<svg version="1.1" id="Layer_1" xmlns="http://www.w3.org/2000/svg" xmlns:xlink="http://www.w3.org/1999/xlink" x="0px" y="0px"
	 viewBox="0 0 25.8 24" style="enable-background:new 0 0 25.8 24;" xml:space="preserve">
<style type="text/css">
	.st0{fill:#D9C9BF;}
</style>
<path class="st0" d="M12.8,13c-2,0-12-8.1-12-8.1V4c0-1.1,0.9-2,2-2h20c1.1,0,2,0.9,2,2v1C24.8,5,14.8,13,12.8,13z M12.8,15.8
	c2.1,0,12-7.8,12-7.8v12c0,1.1-0.9,2-2,2h-20c-1.1,0-2-0.9-2-2V8C0.8,8,10.8,15.8,12.8,15.8z"/>
</svg>
