<?xml version="1.0" encoding="utf-8"?>
<!-- Generator: Adobe Illustrator 19.0.0, SVG Export Plug-In . SVG Version: 6.00 Build 0)  -->
<svg version="1.1" id="Capa_1" xmlns="http://www.w3.org/2000/svg" xmlns:xlink="http://www.w3.org/1999/xlink" x="0px" y="0px"
	 viewBox="458 -178 965 243.8" style="enable-background:new 458 -178 965 243.8;" xml:space="preserve">
<title>IMAGOTIPO_blanco</title>
<path d="M638.2-148.4h6.2V-9.8h-6.2V-148.4z"/>
<path d="M763.4-7.8c-9.5,0.1-18.9-1.8-27.6-5.7c-8.4-3.7-16.2-9.3-23.6-16.5l4.3-5c6.2,6.6,13.6,11.9,21.7,15.8
	c8.1,3.6,16.8,5.3,25.6,5.2c5.1,0.1,10.2-0.7,15-2.3c4.3-1.4,8.2-3.5,11.7-6.4c3.1-2.7,5.6-6,7.4-9.7c1.7-3.8,2.6-7.9,2.6-12.1v-0.4
	c0-3.7-0.6-7.4-1.9-10.9c-1.3-3.3-3.5-6.3-6.3-8.5c-3.7-2.9-7.8-5.2-12.2-6.8c-6.3-2.4-12.7-4.3-19.3-5.7c-6.8-1.4-13.5-3.3-20-5.9
	c-4.9-1.8-9.5-4.5-13.6-7.8c-3.3-2.8-5.9-6.3-7.6-10.3c-1.7-4.3-2.5-8.8-2.4-13.4v-0.4c0-4.8,1-9.5,3.1-13.8c2.1-4.4,5-8.3,8.6-11.5
	c3.8-3.4,8.3-6,13.1-7.7c5.4-1.9,11.1-2.9,16.8-2.8c8.2-0.1,16.3,1.3,23.9,4.2c7.2,2.9,13.9,7,19.8,12l-3.9,5.4
	c-12-10.3-25.3-15.5-40.1-15.5c-4.9-0.1-9.8,0.7-14.4,2.4c-4.1,1.4-7.8,3.6-11.1,6.4c-3,2.6-5.4,5.7-7.1,9.3
	c-1.6,3.4-2.5,7.2-2.5,11v0.4c-0.1,3.7,0.6,7.3,1.9,10.7c1.3,3.4,3.5,6.3,6.3,8.6c3.7,3,7.8,5.3,12.2,7c6.3,2.4,12.8,4.2,19.4,5.6
	c6.9,1.4,13.7,3.4,20.3,6c5.6,2.4,10.1,5,13.5,8.1c3.3,2.8,5.8,6.3,7.4,10.3c1.6,4.1,2.4,8.6,2.3,13v0.4c0.1,5.1-1,10.2-3.1,14.9
	c-2.1,4.5-5,8.5-8.7,11.8c-4,3.4-8.6,6.1-13.6,7.8C775.5-8.7,769.5-7.7,763.4-7.8z"/>
<path d="M1403.7-148.4h6.2V-9.8h-6.2V-148.4z"/>
<path d="M568.6-124.2c-2.2-5.1-5.5-9.5-9.7-13.1c-4.5-3.8-9.7-6.6-15.3-8.3c-6.6-2-13.4-2.9-20.3-2.8h-45.8v6.1h45.3
	c13.3,0,23.8,3.1,31.4,9.4c7.6,6.3,11.5,15.2,11.5,26.7v0.4c0,11.7-3.9,20.7-11.8,27s-18.5,9.6-31.8,9.6h-44.6v59.4h6.2v-53.3h38.2
	c6.8,0.1,13.6-0.9,20.2-2.8c5.8-1.6,11.2-4.5,15.8-8.3c4.4-3.6,8-8.2,10.4-13.4c2.5-5.8,3.7-12.1,3.6-18.5v-0.4
	C572-112.6,570.9-118.6,568.6-124.2z"/>
<polygon points="929.8,-149.4 926.7,-141.3 963.7,-56.4 926.7,-56.4 889.8,-56.4 883.3,-56.4 863,-9.8 869.4,-9.8 887,-50.2 
	966.4,-50.2 983.9,-9.8 990.6,-9.8 "/>
<path d="M1112.4-69.8c5.6-0.4,11.1-1.7,16.3-3.8c4.7-1.9,9-4.5,12.8-7.9c3.6-3.3,6.4-7.4,8.3-11.9c2.1-4.9,3.1-10.2,3-15.6v-0.4
	c0-4.9-0.8-9.7-2.5-14.3c-1.6-4.2-3.9-8.1-6.9-11.5c-4.2-4.4-9.4-7.8-15.1-9.8c-6.9-2.4-14.3-3.6-21.6-3.4h-53v6.1h52.7
	c12.7,0,22.6,2.9,29.6,8.8c7,5.9,10.5,14,10.5,24.5v0.4c0.1,4.6-0.9,9.2-2.7,13.4c-1.8,4.1-4.6,7.8-8.1,10.6c-3.8,3.2-8.3,5.5-13,7
	c-5.7,1.7-11.6,2.5-17.6,2.4h-51.4v65.4h6.3V-69h45.5l41.8,59.2h7.9L1112.4-69.8z"/>
<path d="M1328.3-106.6c-6.4-16.5-19.3-29.7-35.7-36.5c-8.7-3.6-18.1-5.4-27.6-5.3h-41.8v6.1h41.9c8.7-0.1,17.3,1.6,25.3,5
	c14.9,6.3,26.5,18.4,32.1,33.5c3,7.9,4.6,16.3,4.5,24.7v0.4c0.1,8.4-1.4,16.7-4.4,24.5c-5.7,15.1-17.3,27.2-32.2,33.4
	c-8,3.3-16.5,4.9-25.1,4.8h-42.1v6.2h41.8c9.5,0.1,18.9-1.7,27.6-5.4c16.4-6.7,29.4-19.9,35.7-36.5c3.3-8.7,5-17.9,4.9-27.2v-0.4
	C1333.3-88.6,1331.6-97.9,1328.3-106.6z"/>
<path d="M615.2,29.1h1.4l9.2,19.8h-1.6l-2.5-5.5h-11.6l-2.5,5.5H606L615.2,29.1z M621.1,42.1l-5.2-11.4l-5.2,11.4H621.1z"/>
<path d="M676.9,29.2h8.2c2.1-0.1,4.1,0.6,5.6,2c1,0.9,1.5,2.2,1.5,3.6l0,0c0,3.3-2.5,5.1-5.8,5.6l6.5,8.4H691l-6.2-8.2h-6.5v8.2
	h-1.4V29.2z M685,39.4c3.3,0,5.7-1.6,5.7-4.5l0,0c0-2.7-2.1-4.3-5.6-4.3h-6.8v8.8H685z"/>
<path d="M759.5,47c-1.8,1.5-4.1,2.3-6.4,2.2c-5.9,0-9.8-4.7-9.8-10.1l0,0c0-5.4,3.9-10.2,9.9-10.2c5.4-0.1,9.8,4.3,9.9,9.7l0,0V39
	l0,0c0,2.5-0.9,5-2.6,6.9l2.8,2.4l-1.1,1.1L759.5,47z M758.4,46.1l-3.8-3.3l1-1.2l3.8,3.5c1.4-1.7,2.1-3.8,2.1-6l0,0
	c0-4.9-3.5-8.9-8.4-8.9s-8.3,3.9-8.3,8.8l0,0c-0.2,4.7,3.5,8.6,8.2,8.8l0,0h0.2C755.1,47.8,756.9,47.2,758.4,46.1z"/>
<path d="M814.6,40.7V29.2h1.5v11.4c0,4.6,2.5,7.3,6.7,7.3s6.5-2.4,6.5-7.2V29.2h1.5v11.4c0,5.6-3.3,8.6-8.1,8.6
	C817.9,49.2,814.6,46.2,814.6,40.7z"/>
<path d="M883.5,29.2h1.4v19.7h-1.4V29.2z"/>
<path d="M943.3,30.6h-6.8v-1.4h15.2v1.4h-6.9v18.3h-1.5V30.6z"/>
<path d="M1003,29.2h14v1.4h-12.5v7.7h11.3v1.4h-11.3v7.9h12.7v1.3H1003V29.2z"/>
<path d="M1067.9,39.1L1067.9,39.1c-0.2-5.5,4.1-10,9.6-10.2l0,0h0.3c2.9-0.1,5.6,1.1,7.6,3.1l-1,1.1c-1.7-1.9-4.2-2.9-6.7-2.9
	c-4.7,0-8.3,3.9-8.3,8.8l0,0c-0.2,4.7,3.5,8.6,8.2,8.8l0,0h0.2c2.6,0,5-1.1,6.7-3l1,0.9c-2,2.2-4.8,3.5-7.8,3.4
	c-5.4,0-9.8-4.4-9.8-9.8L1067.9,39.1L1067.9,39.1z"/>
<path d="M1141.9,30.6h-6.8v-1.4h15.2v1.4h-6.9v18.3h-1.5L1141.9,30.6L1141.9,30.6z"/>
<path d="M1199.2,39.1L1199.2,39.1c-0.2-5.5,4.1-10,9.6-10.2l0,0h0.3c5.4-0.1,9.8,4.3,9.9,9.7l0,0V39l0,0c0.1,5.5-4.2,10-9.7,10.1
	l0,0h-0.2c-5.4,0.1-9.8-4.3-9.9-9.7l0,0L1199.2,39.1z M1217.5,39.1L1217.5,39.1c0-4.9-3.6-8.9-8.4-8.9c-4.7,0.1-8.5,3.9-8.4,8.6
	c0,0.1,0,0.1,0,0.2l0,0c-0.2,4.7,3.5,8.6,8.2,8.8l0,0h0.2C1214,47.9,1217.5,44,1217.5,39.1z"/>
<path d="M1269.5,46l1-1.1c1.8,1.9,4.4,3,7,3c3,0,5-1.7,5-3.9l0,0c0-2.1-1.1-3.3-5.6-4.2s-6.6-2.5-6.6-5.5l0,0c0-2.9,2.7-5.2,6.3-5.2
	c2.5-0.1,4.9,0.8,6.8,2.4l-1,1.2c-1.6-1.4-3.7-2.2-5.8-2.2c-2.9,0-4.8,1.6-4.8,3.7l0,0c0,2.1,1,3.4,5.7,4.3c4.7,0.9,6.5,2.6,6.5,5.5
	l0,0c0,3.2-2.8,5.4-6.6,5.4C1274.4,49.3,1271.6,48.1,1269.5,46z"/>
</svg>
