<?xml version="1.0" encoding="utf-8"?>
<!-- Generator: Adobe Illustrator 23.0.3, SVG Export Plug-In . SVG Version: 6.00 Build 0)  -->
<svg version="1.1" id="Capa_1" xmlns="http://www.w3.org/2000/svg" xmlns:xlink="http://www.w3.org/1999/xlink" x="0px" y="0px"
	 viewBox="0 0 1368 586" style="enable-background:new 0 0 1368 586;" xml:space="preserve">
<style type="text/css">
	.st0{fill:none;stroke:#A67C52;}
	.st1{fill:none;stroke:#A67C52;stroke-miterlimit:10;}
	.st2{fill:none;stroke:#A67C52;stroke-width:4;stroke-miterlimit:10;}
</style>
<rect x="258.7" y="276.2" class="st0" width="8.7" height="194.2"/>
<path class="st0" d="M434.2,473.2c-14,0-26.9-2.6-38.7-7.9c-11.7-5.3-22.7-13-33-23.2l5.9-6.9c9.6,9.8,19.7,17.2,30.5,22.1
	c10.7,4.9,22.7,7.4,35.8,7.4c7.7,0,14.7-1.1,21.1-3.2c6.3-2.1,11.8-5.1,16.3-9s8-8.4,10.4-13.6s3.6-10.8,3.6-16.9v-0.6
	c0-5.7-0.9-10.8-2.6-15.3c-1.7-4.4-4.7-8.4-8.9-11.9c-4.2-3.5-9.9-6.7-17.1-9.6s-16.2-5.5-27-7.9c-11-2.4-20.3-5.2-28.1-8.3
	c-7.8-3.1-14.1-6.8-19-11s-8.4-9-10.7-14.4c-2.2-5.5-3.3-11.7-3.3-18.7v-0.6c0-6.8,1.5-13.3,4.4-19.4s6.9-11.5,12.1-16.1
	c5.1-4.6,11.3-8.2,18.4-10.8c7.1-2.6,14.9-3.9,23.5-3.9c12.3,0,23.5,2,33.4,6s19.2,9.6,27.8,16.8l-5.4,7.5
	C466.7,289.2,448,282,427.3,282c-7.4,0-14.1,1.1-20.2,3.3c-6.1,2.2-11.3,5.2-15.5,9c-4.3,3.8-7.6,8.1-9.9,13s-3.5,10-3.5,15.4v0.6
	c0,5.5,0.9,10.5,2.6,15c1.7,4.4,4.7,8.5,8.9,12.1c4.2,3.6,9.9,6.8,17.1,9.7c7.2,2.9,16.3,5.5,27.2,7.9c11.1,2.4,20.6,5.2,28.4,8.5
	c7.8,3.2,14.1,7,18.9,11.2c4.8,4.3,8.3,9.1,10.4,14.4c2.1,5.4,3.2,11.5,3.2,18.3v0.6c0,7.6-1.5,14.5-4.4,20.8s-7,11.8-12.2,16.5
	s-11.6,8.4-19,11C451.8,471.9,443.5,473.2,434.2,473.2z"/>
<rect x="1331.3" y="276.2" class="st0" width="8.7" height="194.2"/>
<path class="st0" d="M161.2,310.2c-3.2-7.3-7.7-13.5-13.5-18.5s-13-8.8-21.5-11.5s-17.9-4-28.4-4H33.6v8.6h8.7H97
	c18.7,0,33.4,4.4,44.1,13.2c10.7,8.8,16.1,21.3,16.1,37.4v0.6c0,16.3-5.5,28.9-16.6,37.8c-11,8.9-25.9,13.4-44.6,13.4H42.3h-8.7
	v83.2h8.7v-74.6h53.4c10.3,0,19.7-1.3,28.3-3.9s16-6.5,22.2-11.7c6.3-5.2,11.1-11.5,14.5-18.9s5.1-16,5.1-25.8V335
	C165.9,325.8,164.3,317.5,161.2,310.2z"/>
<polygon class="st1" points="667.3,274.8 663,286.2 714.8,405.2 663,405.2 611.3,405.2 602.2,405.2 573.7,470.4 582.7,470.4 
	607.4,413.8 718.7,413.8 743.1,470.4 752.6,470.4 "/>
<path class="st0" d="M923.2,386.3c8.2-0.7,15.8-2.5,22.7-5.3s12.9-6.5,18-11.1s8.9-10.2,11.7-16.6c2.7-6.5,4.1-13.8,4.1-21.9v-0.6
	c0-7.2-1.2-13.9-3.5-20s-5.5-11.5-9.6-16.1c-5.5-5.9-12.6-10.5-21.2-13.7c-8.7-3.2-18.7-4.9-30.2-4.9H841v8.6h8.7h15.4h49.6
	c17.8,0,31.6,4.1,41.5,12.3c9.8,8.2,14.8,19.7,14.8,34.3v0.6c0,6.8-1.3,13.1-3.9,18.9c-2.6,5.7-6.3,10.7-11.3,14.8
	c-5,4.2-11,7.4-18.2,9.7c-7.2,2.3-15.4,3.5-24.7,3.5h-47.8h-15.4H841v91.6h8.7v-83h63h0.8l58.6,83h11L923.2,386.3z"/>
<path class="st0" d="M1225.7,334.9c-4.6-11.7-11.2-22-19.7-30.7s-18.6-15.5-30.3-20.5c-11.7-5-24.6-7.5-38.7-7.5h-58.6v8.6h8.7h11.3
	h38.6c13,0,24.9,2.3,35.5,6.9s19.7,10.9,27.3,18.9c7.6,8,13.4,17.3,17.6,28.2c4.2,10.8,6.3,22.3,6.3,34.5v0.6
	c0,12.2-2.1,23.7-6.2,34.4c-4.1,10.7-10,20.1-17.6,28c-7.6,8-16.8,14.2-27.4,18.7s-22.4,6.8-35.3,6.8h-38.9H1087h-8.7v8.6h58.6
	c14,0,26.9-2.5,38.7-7.5c11.7-5,21.8-11.8,30.3-20.5s15-18.9,19.7-30.7c4.6-11.7,6.9-24.5,6.9-38.1V373
	C1232.6,359.3,1230.3,346.6,1225.7,334.9z"/>
<polygon class="st1" points="226.6,524.9 228.5,524.9 241.4,552.7 239.1,552.7 235.6,545 219.3,545 215.8,552.7 213.7,552.7 "/>
<polygon class="st1" points="234.7,543.1 227.5,527.2 220.2,543.1 "/>
<path class="st1" d="M312.9,525.1h11.6c3.4,0,6.1,1.1,7.8,2.7c1.3,1.3,2.1,3.2,2.1,5.1v0.1c0,4.6-3.4,7.2-8.1,7.9l9.1,11.8h-2.6
	l-8.8-11.4h-0.1H315v11.4h-2v-27.6H312.9z"/>
<path class="st1" d="M324.3,539.4c4.6,0,8-2.3,8-6.3V533c0-3.7-2.9-6-7.9-6H315v12.4H324.3z"/>
<path class="st1" d="M428.7,550c-2.3,2-5.4,3.2-8.9,3.2c-8.4,0-13.8-6.7-13.8-14.2v-0.1c0-7.5,5.6-14.3,13.9-14.3
	c8.4,0,13.8,6.7,13.8,14.2c0,0,0,0,0,0.1c0,3.7-1.3,7.1-3.6,9.7l3.9,3.3l-1.5,1.6L428.7,550z"/>
<path class="st1" d="M427.2,548.7l-5.4-4.6l1.5-1.6l5.3,4.8c1.9-2.2,3-5.2,3-8.4v-0.1c0-6.8-5-12.4-11.8-12.4s-11.7,5.5-11.7,12.3
	v0.1c0,6.8,5,12.4,11.8,12.4C422.7,551.3,425.3,550.3,427.2,548.7z"/>
<path class="st1" d="M506,541.2v-16.1h2V541c0,6.5,3.5,10.2,9.3,10.2c5.6,0,9.2-3.4,9.2-10v-16.1h2V541c0,7.9-4.6,12.1-11.3,12.1
	C510.7,553.1,506,548.9,506,541.2z"/>
<rect x="602.4" y="525.1" class="st1" width="2" height="27.6"/>
<polygon class="st1" points="686.3,527 676.7,527 676.7,525.1 698,525.1 698,527 688.3,527 688.3,552.7 686.3,552.7 "/>
<polygon class="st1" points="769.9,525.1 789.6,525.1 789.6,527 772,527 772,537.8 787.8,537.8 787.8,539.7 772,539.7 772,550.8 
	789.8,550.8 789.8,552.7 769.9,552.7 "/>
<path class="st1" d="M860.9,539L860.9,539c0-7.9,5.8-14.3,13.8-14.3c4.9,0,7.9,1.8,10.7,4.4l-1.5,1.5c-2.4-2.3-5.2-4.1-9.3-4.1
	c-6.6,0-11.6,5.4-11.6,12.3v0.1c0,7,5.1,12.4,11.7,12.4c4,0,6.7-1.5,9.5-4.3l1.4,1.3c-2.9,2.9-6.1,4.8-11,4.8
	C866.7,553.2,860.9,546.9,860.9,539z"/>
<polygon class="st1" points="964.6,527 954.9,527 954.9,525.1 976.2,525.1 976.2,527 966.6,527 966.6,552.7 964.6,552.7 "/>
<path class="st1" d="M1044.8,539L1044.8,539c0-7.6,5.6-14.3,13.9-14.3c8.4,0,13.8,6.7,13.8,14.2c0,0,0,0,0,0.1
	c0,7.5-5.6,14.3-13.9,14.3C1050.3,553.2,1044.8,546.5,1044.8,539z"/>
<path class="st1" d="M1070.4,539L1070.4,539c0-6.9-5-12.5-11.8-12.5s-11.7,5.5-11.7,12.3v0.1c0,6.8,5,12.4,11.8,12.4
	C1065.5,551.3,1070.4,545.8,1070.4,539z"/>
<path class="st1" d="M1143.3,548.7l1.3-1.5c3,2.8,5.8,4.1,9.9,4.1s7-2.3,7-5.5v-0.1c0-2.9-1.5-4.6-7.8-5.9c-6.6-1.3-9.3-3.6-9.3-7.8
	l0,0c0-4.1,3.7-7.2,8.9-7.2c4,0,6.7,1.1,9.5,3.3l-1.3,1.6c-2.6-2.2-5.2-3.1-8.2-3.1c-4.1,0-6.7,2.3-6.7,5.2v0.1c0,2.9,1.5,4.7,8,6
	c6.4,1.3,9.1,3.6,9.1,7.6v0.1c0,4.5-3.8,7.5-9.1,7.5C1150,553.1,1146.6,551.6,1143.3,548.7z"/>
<polyline class="st2" points="623.7,204.5 623.7,51.8 579.8,46.5 579.8,22.5 885.1,69.4 885.1,159.8 579.8,130.5 488.5,164.4 
	488.5,78.5 558.4,37.3 559.5,113.5 505.4,138.1 505.4,113.5 578.6,75.1 852.4,108.3 852.4,179.3 580.9,155 504.3,181.6 505.4,204.5 
	579.8,177 854.7,199.9 "/>
</svg>
