<?xml version="1.0" encoding="utf-8"?>
<!-- Generator: Adobe Illustrator 23.0.3, SVG Export Plug-In . SVG Version: 6.00 Build 0)  -->
<svg version="1.1" id="Capa_1" xmlns="http://www.w3.org/2000/svg" xmlns:xlink="http://www.w3.org/1999/xlink" x="0px" y="0px"
	 viewBox="0 0 1106.5 483.1" style="enable-background:new 0 0 1106.5 483.1;" xml:space="preserve">
<style type="text/css">
	.st0{fill:#A67C52;stroke:#A67C52;stroke-width:4;}
	.st1{fill:#A67C52;stroke:#A67C52;stroke-width:4;stroke-miterlimit:10;}
	.st2{fill:none;stroke:#A67C52;stroke-width:3;}
	.st3{fill:none;stroke:#A67C52;stroke-width:2;}
	.st4{fill:none;stroke:#A67C52;stroke-width:3.5;}
</style>
<title>logo_animacion</title>
<rect x="206.8" y="236.8" class="st0" width="7.1" height="157"/>
<path class="st0" d="M348.7,396.1c-10.8,0.1-21.4-2.1-31.3-6.4c-10-4.6-19-11-26.7-18.8l4.8-5.6c7,7.4,15.4,13.5,24.6,17.9
	c9.1,4,19,6,29,5.9c5.8,0.1,11.5-0.8,17-2.6c4.9-1.5,9.4-4,13.2-7.3c7.3-6,11.5-15.1,11.4-24.6v-0.5c0.1-4.2-0.6-8.4-2.1-12.3
	c-1.5-3.8-4-7.1-7.2-9.7c-4.2-3.3-8.8-5.9-13.8-7.7c-7.1-2.7-14.4-4.9-21.8-6.4c-7.8-1.6-15.4-3.8-22.8-6.7
	c-5.5-2.1-10.7-5.1-15.3-8.9c-3.8-3.1-6.8-7.2-8.7-11.7c-1.9-4.8-2.8-9.9-2.7-15.1v-0.5c0-5.4,1.2-10.8,3.6-15.7
	c2.4-4.9,5.7-9.3,9.7-13c4.4-3.8,9.4-6.8,14.9-8.7c6.1-2.2,12.5-3.3,19-3.2c9.2-0.2,18.4,1.5,27,4.9c8.2,3.3,15.8,7.9,22.5,13.5
	l-4.4,6.1c-13.6-11.7-28.8-17.5-45.5-17.5c-5.6-0.1-11.1,0.8-16.3,2.7c-4.6,1.6-8.9,4.1-12.6,7.3c-3.4,2.9-6.1,6.5-8,10.5
	c-1.9,3.9-2.8,8.2-2.8,12.5v0.4c-0.1,4.1,0.6,8.2,2.1,12.1c1.5,3.8,3.9,7.2,7.1,9.8c4.2,3.4,8.9,6,13.9,7.8c7.1,2.8,14.5,4.9,22,6.4
	c7.8,1.6,15.5,4,22.9,6.9c5.6,2.1,10.8,5.2,15.3,9.1c3.7,3.1,6.6,7.1,8.4,11.6c1.8,4.7,2.7,9.7,2.6,14.8v0.5
	c0.1,5.8-1.1,11.5-3.5,16.8c-2.3,5.1-5.7,9.7-9.9,13.4c-4.5,3.9-9.7,6.9-15.3,8.8C362.4,395.1,355.6,396.2,348.7,396.1z"/>
<rect x="1074.1" y="236.8" class="st0" width="7.1" height="157"/>
<path class="st0" d="M127.9,264.3c-2.5-5.7-6.2-10.9-10.9-15c-5.1-4.2-11-7.4-17.3-9.3c-7.5-2.2-15.2-3.3-23-3.2h-52v6.9h51.4
	c15.1,0,26.9,3.6,35.6,10.7c8.7,7.1,13,17.2,13,30.3v0.4c0,13.2-4.5,23.4-13.4,30.6s-21,10.8-36.1,10.8H24.7v67.3h7.1v-60.3H75
	c7.7,0.1,15.5-1,22.9-3.2c6.6-1.9,12.7-5.1,18-9.4c5-4.2,8.9-9.3,11.7-15.2c2.9-6.6,4.4-13.7,4.2-20.9v-0.5
	C131.9,277.4,130.5,270.6,127.9,264.3z"/>
<polygon class="st1" points="537.2,235.7 533.7,244.9 575.6,341.1 533.7,341.1 491.9,341.1 484.5,341.1 461.5,393.8 468.8,393.8 
	488.7,348.1 578.7,348.1 598.5,393.8 606.1,393.8 "/>
<path class="st0" d="M744.1,325.8c6.3-0.5,12.5-1.9,18.4-4.2c5.3-2.1,10.3-5.2,14.6-9c4.1-3.8,7.3-8.4,9.4-13.5
	c2.3-5.6,3.4-11.6,3.3-17.7V281c0.1-5.5-0.9-11-2.8-16.2c-1.7-4.8-4.4-9.2-7.8-13c-4.7-5-10.6-8.8-17.1-11.1
	c-7.8-2.7-16.1-4.1-24.4-3.9h-60.1v6.9h59.7c14.4,0,25.5,3.4,33.5,10c8,6.6,12,15.9,12,27.7v0.5c0,5.2-1,10.4-3.2,15.2
	c-2,4.7-5.1,8.8-9.1,12c-4.3,3.6-9.3,6.2-14.7,7.9c-6.5,2-13.2,2.9-20,2.8h-58.2v74h7.1v-67.1h51.5l47.4,67.1h8.9L744.1,325.8z"/>
<path class="st0" d="M988.7,284.2c-7.2-18.7-21.8-33.7-40.4-41.4c-9.9-4.1-20.6-6.1-31.3-6h-47.4v6.9h47.5
	c9.8-0.1,19.6,1.8,28.7,5.6c16.8,7.1,30,20.9,36.3,38.1c3.4,8.9,5.2,18.4,5.1,27.9v0.4c0.1,9.5-1.6,19-5,27.9
	c-3.2,8.4-8,16.1-14.2,22.6c-6.3,6.5-13.8,11.7-22.2,15.2c-9,3.7-18.7,5.6-28.5,5.5h-47.7v6.9H917c10.7,0.1,21.4-1.9,31.3-6
	c18.6-7.7,33.2-22.7,40.4-41.4c3.8-9.9,5.7-20.3,5.6-30.9v-0.4C994.3,304.5,992.4,294,988.7,284.2z"/>
<polygon class="st2" points="180.8,437.9 182.4,437.9 192.8,460.4 190.9,460.4 188.1,454.1 174.9,454.1 172.1,460.4 170.4,460.4 "/>
<polygon class="st2" points="187.4,452.6 181.5,439.7 175.6,452.6 "/>
<path class="st2" d="M250.6,438.1h9.4c2.3-0.1,4.6,0.7,6.3,2.2c1.1,1.1,1.7,2.6,1.7,4.1l0,0c0,3.7-2.8,5.8-6.6,6.3l7.4,9.6h-2.1
	l-7.1-9.3h-7.3v9.3h-1.7V438.1z"/>
<path class="st3" d="M259.8,449.6c3.7,0,6.5-1.9,6.5-5.1l0,0c0-3-2.3-4.9-6.4-4.9h-7.6v10H259.8z"/>
<path class="st2" d="M344.2,458.2c-2,1.7-4.6,2.6-7.2,2.5c-6.7,0-11.1-5.3-11.1-11.4l0,0c0-6.1,4.4-11.5,11.2-11.5
	c6.1-0.1,11.1,4.9,11.2,11c0,0.1,0,0.2,0,0.3l0,0c0,2.9-1.1,5.7-3,7.9l3.2,2.7l-1.1,1.2L344.2,458.2z"/>
<path class="st2" d="M343,457.1l-4.3-3.7l1.2-1.3l4.2,3.9c1.6-1.8,2.5-4.2,2.5-6.7l0,0c0.2-5.4-4-9.8-9.4-10c-0.1,0-0.1,0-0.2,0
	c-5.5,0-9.4,4.4-9.4,9.9l0,0c0,5.5,4,10,9.5,10C339.2,459.2,341.3,458.5,343,457.1z"/>
<path class="st2" d="M406.7,451.1v-13h1.7v12.8c0,5.3,2.8,8.3,7.5,8.3s7.5-2.7,7.5-8.1v-13h1.6v12.8c0,6.4-3.7,9.8-9.1,9.8
	S406.7,457.3,406.7,451.1z"/>
<rect x="484.7" y="438.1" class="st2" width="1.7" height="22.3"/>
<polygon class="st2" points="552.5,439.6 544.8,439.6 544.8,438.1 562,438.1 562,439.6 554.2,439.6 554.2,460.4 552.5,460.4 "/>
<polygon class="st2" points="620.2,438.1 636,438.1 636,439.6 621.8,439.6 621.8,448.3 634.6,448.3 634.6,449.9 621.8,449.9 
	621.8,458.8 636.2,458.8 636.2,460.4 620.2,460.4 "/>
<path class="st2" d="M693.7,449.3L693.7,449.3c-0.2-6.2,4.7-11.3,10.9-11.5c0.1,0,0.2,0,0.3,0c3.2-0.1,6.3,1.2,8.6,3.5l-1.2,1.3
	c-1.9-2.1-4.6-3.3-7.5-3.3c-5.3,0-9.4,4.3-9.4,9.9l0,0c0,5.6,4.1,10,9.5,10c2.9,0,5.7-1.2,7.6-3.4l1.1,1.1c-2.2,2.5-5.5,3.9-8.8,3.8
	c-6.1,0.1-11-4.8-11.1-10.9C693.6,449.6,693.7,449.4,693.7,449.3z"/>
<polygon class="st2" points="777.6,439.6 769.8,439.6 769.8,438.1 787,438.1 787,439.6 779.2,439.6 779.2,460.4 777.6,460.4 "/>
<path class="st2" d="M842.4,449.3L842.4,449.3c-0.6-6.2,3.9-11.7,10.1-12.4c6.2-0.6,11.7,3.9,12.4,10.1c0.1,0.7,0.1,1.4,0,2.1l0,0
	c0.6,6.2-3.9,11.7-10.1,12.4c-6.2,0.6-11.7-3.9-12.4-10.1C842.3,450.7,842.3,450,842.4,449.3z"/>
<path class="st2" d="M863.2,449.3L863.2,449.3c0.2-5.4-4-9.8-9.4-10c-0.1,0-0.1,0-0.2,0c-5.5,0-9.4,4.4-9.4,9.9l0,0
	c0,5.5,4,10,9.5,10S863.2,454.8,863.2,449.3z"/>
<path class="st2" d="M922.1,457.1l1.1-1.2c2.1,2.2,5,3.4,8,3.3c3.3,0,5.6-1.9,5.6-4.4l0,0c0-2.4-1.2-3.7-6.3-4.8s-7.5-2.9-7.5-6.2
	l0,0c0-3.3,3-5.9,7.1-5.9c2.8-0.1,5.6,0.9,7.7,2.7l-1.1,1.4c-1.8-1.7-4.1-2.6-6.6-2.6c-3.3,0-5.5,1.9-5.5,4.2l0,0
	c0,2.4,1.2,3.8,6.5,4.9s7.4,2.9,7.4,6.1l0,0c0,3.6-3.1,6.1-7.4,6.1C927.7,460.7,924.5,459.4,922.1,457.1z"/>
<polyline class="st4" points="501.9,178.8 501.9,55.3 466.4,51 466.4,31.6 713.3,69.6 713.3,142.7 466.4,119 392.6,146.4 392.6,77 
	449.1,43.6 450,105.2 406.3,125.1 406.3,105.2 465.5,74.2 686.9,101 686.9,158.4 467.3,138.8 405.4,160.3 406.3,178.8 466.4,156.6 
	688.7,175.1 "/>
</svg>
